# xmcd
#
# Track frame offsets: 
#        150
#        15461
#        34677
#        53235
#        65428
#        83715
#        100346
#        130155
#        154121
#        173259
#        205874
#        227584
#        246903
#        269710
#        285336
#
# Disc length: 4086 seconds
#
# Revision: 0
# Processed by: cddbd v1.5.2PL0 Copyright (c) Steve Scherf et al.
# Submitted via: ExactAudioCopy v0.99pb3
#
DISCID=c00ff40f
DTITLE=Foreday Riders - Blues Reform School
DYEAR=1997
DGENRE=Blues
TTITLE0=He May Be Your Man
TTITLE1=Who Do You Love
TTITLE2=I Feel So Good
TTITLE3=Blueberry Hill
TTITLE4=Tweed Heads Jail
TTITLE5=Get A Little Love in Your Heart
TTITLE6=Mystery Train
TTITLE7=Natural Born Believer
TTITLE8=Can't Get No Grinding
TTITLE9=Cold Cold Feeling
TTITLE10=Turnpike
TTITLE11=24 ours A Day
TTITLE12=You're Sweet
TTITLE13=That's All Right
TTITLE14=Leave My Girl Alone
EXTD=
EXTT0=
EXTT1=
EXTT2=
EXTT3=
EXTT4=
EXTT5=
EXTT6=
EXTT7=
EXTT8=
EXTT9=
EXTT10=
EXTT11=
EXTT12=
EXTT13=
EXTT14=
PLAYORDER=
